/vscmnt/brussel_pixiu_data/_data_brussel/112/vsc11236/PredSimResults/SUBJ10opt3D/weighted-LRposFixed/expIG/worker_05.mot
version=1
nRows=10
nColumns=50
inDegrees=yes
endheader
                time	         pelvis_tilt	         pelvis_list	     pelvis_rotation	           pelvis_tx	           pelvis_ty	           pelvis_tz	       hip_flexion_r	     hip_adduction_r	      hip_rotation_r	        knee_angle_r	       ankle_angle_r	         mtp_angle_r	       hip_flexion_l	     hip_adduction_l	      hip_rotation_l	        knee_angle_l	       ankle_angle_l	         mtp_angle_l	    lumbar_extension	      lumbar_bending	     lumbar_rotation	 ercspn_r/activation	 intobl_r/activation	 extobl_r/activation	    abd_r/activation	    add_r/activation	hamstrings_r/activation	bifemsh_r/activation	glut_max_r/activation	iliopsoas_r/activation	rect_fem_r/activation	  vasti_r/activation	gastroc_r/activation	 soleus_r/activation	tib_ant_r/activation	 ercspn_l/activation	 intobl_l/activation	 extobl_l/activation	    abd_l/activation	    add_l/activation	hamstrings_l/activation	bifemsh_l/activation	glut_max_l/activation	iliopsoas_l/activation	rect_fem_l/activation	  vasti_l/activation	gastroc_l/activation	 soleus_l/activation	tib_ant_l/activation	
          1.20215111	         -5.06952517	         -1.06102768	          6.55558689	          1.29832320	          0.82290685	         -0.01418992	         30.65207643	         -1.49695033	         -5.96674249	         -4.49861818	          3.14965231	          0.25821537	        -13.94242308	         -0.40274187	          0.34305729	         -5.76156710	          9.28922474	         26.35456252	         -6.18177191	         -0.80195030	         -7.00561214	          0.12577626	          0.16128081	          0.00999999	          0.00999999	          0.13970763	          0.14546126	          0.19704994	          0.02853926	          0.12892980	          0.00999999	          0.00999999	          0.01386350	          0.00999999	          0.28008703	          0.04962957	          0.00999999	          0.00999999	          0.07454532	          0.00999999	          0.01254736	          0.27420022	          0.02991338	          0.55912802	          0.00999999	          0.00999999	          0.36208795	          0.28378553	          0.02527653	
          1.21417262	         -5.11789232	         -1.03493716	          6.74091263	          1.31393068	          0.82115076	         -0.01371644	         30.89760402	         -1.36823126	         -5.83269171	         -6.53504177	          2.80603897	          0.25918431	        -14.11439206	         -0.54186558	          0.04628687	         -7.32524438	          8.78850283	         28.05322690	         -5.93627796	         -0.28164814	         -7.40301973	          0.10954050	          0.13436053	          0.00999999	          0.00999999	          0.25513330	          0.12267927	          0.16415924	          0.06773775	          0.10740941	          0.00999999	          0.00999999	          0.01670018	          0.01246521	          0.30235853	          0.10096776	          0.00999999	          0.00999999	          0.06210255	          0.04515306	          0.01737253	          0.22843193	          0.02492037	          0.52780291	          0.00999999	          0.00999999	          0.33352910	          0.27715746	          0.02105748	
          1.22619413	         -5.15304555	         -1.03625747	          6.90066700	          1.32999318	          0.81961143	         -0.01317909	         30.92874742	         -1.25399594	         -5.56436837	         -8.48564525	          2.42044053	          0.24422665	        -14.14777027	         -0.72391389	         -0.26919916	         -9.19601094	          8.13806194	         29.79025525	         -5.65127693	          0.27519320	         -7.77340037	          0.09125649	          0.11193367	          0.00999999	          0.00999999	          0.21254758	          0.10244984	          0.13675851	          0.12003868	          0.08948111	          0.00999999	          0.00999999	          0.01391266	          0.01038457	          0.37334050	          0.11808411	          0.00999999	          0.00999999	          0.05173667	          0.07677604	          0.01447280	          0.19030309	          0.02076077	          0.44433373	          0.00999999	          0.00999999	          0.29608477	          0.26480144	          0.01754266	
          1.23821564	         -5.17714554	         -1.05386325	          7.02530024	          1.34631948	          0.81840333	         -0.01250290	         30.75960916	         -1.12567801	         -5.34483417	        -10.10862640	          1.93259403	          0.23424309	        -13.99591029	         -0.93940694	         -0.61356619	        -11.41775277	          7.29055817	         31.52301806	         -5.34890109	          0.84025232	         -8.11002817	          0.10308288	          0.09325020	          0.00999999	          0.04618698	          0.18909132	          0.08946226	          0.11393139	          0.13855289	          0.07454532	          0.00999999	          0.00999999	          0.01159042	          0.00999999	          0.43312906	          0.13066751	          0.00999999	          0.00999999	          0.04310101	          0.06420338	          0.01656144	          0.15853854	          0.01729548	          0.37016752	          0.00999999	          0.00999999	          0.24666361	          0.24712924	          0.01461452	
          1.25023715	         -5.19174752	         -1.07237849	          7.11499763	          1.36268017	          0.81762049	         -0.01169382	         30.49942661	         -0.98994540	         -5.23808231	        -11.59480727	          1.47410301	          0.22071429	        -13.61903740	         -1.17244905	         -0.98880027	        -14.01919539	          6.22496011	         33.14255938	         -5.05370440	          1.39626768	         -8.40737021	          0.10959133	          0.07768529	          0.00999999	          0.09117141	          0.21916740	          0.07483863	          0.09491446	          0.14725063	          0.06210254	          0.00999999	          0.00999999	          0.00999999	          0.00999999	          0.46041083	          0.16053402	          0.00999999	          0.00999999	          0.03590678	          0.06684144	          0.01961059	          0.13207599	          0.01440859	          0.30838080	          0.00999999	          0.00999999	          0.20549162	          0.22494618	          0.01217513	
          1.26225866	         -5.19754152	         -1.09139103	          7.17160394	          1.37889563	          0.81733899	         -0.01077537	         30.22000936	         -0.85186819	         -5.22224864	        -13.07049933	          1.18266896	          0.20725854	        -12.98971781	         -1.42325932	         -1.39802054	        -17.01292678	          4.95750610	         34.45357388	         -4.77976482	          1.94316592	         -8.66202208	          0.10645938	          0.06471840	          0.00999999	          0.12445028	          0.23704658	          0.06846410	          0.07907176	          0.14316665	          0.05173666	          0.00999999	          0.05133388	          0.00999999	          0.00999999	          0.47572982	          0.18566566	          0.00999999	          0.00999999	          0.02991338	          0.13535969	          0.03016010	          0.11003045	          0.01200357	          0.25690724	          0.00999999	          0.00999999	          0.17119187	          0.19155576	          0.01014291	
          1.27428017	         -5.19705087	         -1.10835042	          7.19492691	          1.39481869	          0.81765601	         -0.00977815	         29.91228235	         -0.71114393	         -5.26480057	        -14.49717471	          1.11418794	          0.19224539	        -12.08383603	         -1.68966252	         -1.85520427	        -20.40401476	          3.53329188	         35.16674317	         -4.53741690	          2.47847860	         -8.87177605	          0.10060644	          0.05391590	          0.00999999	          0.14642376	          0.25099352	          0.06734830	          0.06587346	          0.12122883	          0.04310101	          0.00999999	          0.09762998	          0.00999999	          0.00999999	          0.46513062	          0.19724521	          0.00999999	          0.00999999	          0.02492037	          0.20129448	          0.04258476	          0.09166466	          0.00999999	          0.21402543	          0.00999999	          0.00999999	          0.14261728	          0.15958212	          0.00999999	
          1.28630168	         -5.19290517	         -1.11712450	          7.18514983	          1.41036861	          0.81861170	         -0.00873489	         29.52960414	         -0.56483367	         -5.31944729	        -15.79163554	          1.35204585	          0.18776997	        -10.89419417	         -1.97080830	         -2.36589279	        -24.17837382	          1.99151292	         35.03278382	         -4.33169414	          2.99675030	         -9.03532479	          0.09374778	          0.04491649	          0.00999999	          0.16004354	          0.25098153	          0.06838901	          0.05487815	          0.10099385	          0.03590678	          0.00999999	          0.14306619	          0.00999999	          0.00999999	          0.41325156	          0.20466017	          0.00999999	          0.00999999	          0.02076077	          0.26472877	          0.04706334	          0.07636440	          0.00999999	          0.17830125	          0.00999999	          0.00999999	          0.11881224	          0.13294538	          0.00999999	
          1.29832320	         -5.18767170	         -1.10737507	          7.14053259	          1.42550903	          0.82020735	         -0.00768130	         29.00882882	         -0.41365870	         -5.34832252	        -16.83591707	          1.91126258	          0.23061039	         -9.44356008	         -2.25979160	         -2.91292140	        -28.23079774	          0.19584599	         34.11379897	         -4.16449635	          3.48884367	         -9.15040953	          0.07940206	          0.03741923	          0.00999999	          0.16127088	          0.23141092	          0.07000174	          0.04571813	          0.08413641	          0.02991338	          0.00999999	          0.17896837	          0.00999999	          0.00999999	          0.34594011	          0.20614144	          0.00999999	          0.00999999	          0.01729548	          0.32251695	          0.05965018	          0.06361800	          0.00999999	          0.14854000	          0.00999999	          0.00999999	          0.09898063	          0.11075473	          0.00999999	
          1.31034471	         -5.18372061	         -1.06449325	          7.05730599	          1.44020791	          0.82240476	         -0.00664495	         28.30446096	         -0.26638392	         -5.33010542	        -17.51805456	          2.62884983	          0.34026440	         -7.77361846	         -2.53988203	         -3.46381165	        -32.41208642	         -1.97053212	         32.50276369	         -4.04072395	          3.94047297	         -9.21489806	          0.06614862	          0.03117338	          0.00999999	          0.15387257	          0.19278484	          0.07362704	          0.03808707	          0.07009273	          0.02492037	          0.00999999	          0.18749092	          0.00999999	          0.00999999	          0.28911036	          0.19887740	          0.00999999	          0.00999999	          0.01440859	          0.33935665	          0.05853252	          0.05435694	          0.00999999	          0.12374636	          0.00999999	          0.00999999	          0.08245922	          0.09226804	          0.00999999	
